<svg width="482" height="47" viewBox="0 0 482 47" fill="none" xmlns="http://www.w3.org/2000/svg">
<path d="M0.128906 46.25V0.0585938H36.7827C38.5414 0.0585938 40.1242 0.483442 41.5605 1.34779C42.9967 2.19749 44.1545 3.35484 45.0192 4.77589C45.8986 6.21159 46.3382 7.80844 46.3382 9.55179V36.7568C46.3382 38.4709 45.8986 40.0531 45.0192 41.5034C44.1399 42.9538 42.9821 44.1111 41.5605 44.9608C40.1242 45.8105 38.5268 46.25 36.7827 46.25H0.128906ZM36.2698 36.2441V10.0645H10.0215V36.2441H36.2698Z" fill="white"/>
<path d="M60.0684 9.55179C60.0684 7.79379 60.4934 6.21159 61.3581 4.77589C62.2081 3.34019 63.3659 2.19749 64.8168 1.34779C66.2677 0.498092 67.8505 0.0585938 69.5652 0.0585938H96.7075C98.4662 0.0585938 100.049 0.483442 101.485 1.34779C102.922 2.19749 104.079 3.35484 104.944 4.77589C105.823 6.21159 106.263 7.80844 106.263 9.55179V46.25H96.1799V31.3656H69.9903V46.25H60.0391V9.55179H60.0684ZM96.2093 21.3597V10.0645H70.0196V21.3597H96.2093Z" fill="white"/>
<path d="M135.812 46.25V10.0645H117.712V0.0585938H163.922V10.0645H145.822V46.25H135.812Z" fill="white"/>
<path d="M175.28 9.55179C175.28 7.79379 175.705 6.21159 176.569 4.77589C177.42 3.34019 178.577 2.19749 180.028 1.34779C181.479 0.498092 183.062 0.0585938 184.777 0.0585938H211.919C213.678 0.0585938 215.26 0.483442 216.697 1.34779C218.133 2.19749 219.291 3.35484 220.155 4.77589C221.035 6.21159 221.474 7.80844 221.474 9.55179V46.25H211.391V31.3656H185.202V46.25H175.25V9.55179H175.28ZM211.421 21.3597V10.0645H185.231V21.3597H211.421Z" fill="white"/>
<path d="M304.411 46.25V0.0585938H314.23V46.25H304.411Z" fill="white"/>
<path d="M326.232 46.25V0H336.183V36.2441H372.441V46.25H326.232Z" fill="white"/>
<path d="M382.642 46.25V0H392.593V36.2441H428.851V46.25H382.642Z" fill="white"/>
<path d="M439.124 46.25V0.0585938H481.801V10.0645H449.192V18.1513H475.441V28.1573H449.192V36.2441H481.801V46.25H439.124Z" fill="white"/>
<path d="M258.817 46.25L232.056 0.0585938H293.859L267.097 46.25H258.817Z" fill="white"/>
<path d="M285.269 17.5946C285.269 18.2099 285.298 18.7227 285.269 19.2354C285.24 19.6896 285.43 19.8214 285.855 19.8068C286.383 19.7775 286.911 19.8068 287.497 19.8068V22.0043C288.098 22.0043 288.669 22.0043 289.226 22.0043C289.578 22.0043 289.724 22.1215 289.71 22.4877C289.695 23.0298 289.71 23.5865 289.71 24.2018C290.296 24.2018 290.838 24.2164 291.381 24.2018C291.776 24.1871 291.937 24.3043 291.908 24.7145C291.879 25.2859 291.908 25.8719 291.908 26.5165H283.159V30.8089H285.254V35.2039H287.467V39.6136H289.651V44.1111H287.497V46.2793H283.012V44.1258C282.397 44.1258 281.84 44.1258 281.283 44.1258C280.916 44.1258 280.77 44.0086 280.784 43.6277C280.814 42.3531 280.784 41.0786 280.784 39.7454C280.198 39.7454 279.656 39.7454 279.114 39.7454C278.718 39.7454 278.542 39.6282 278.557 39.1887C278.586 38.09 278.557 36.9912 278.557 35.8925C278.557 35.7167 278.557 35.5409 278.557 35.3211H276.402V30.9847H272.094C272.094 31.5414 272.094 32.0981 272.094 32.6548C272.094 33.0211 271.976 33.1822 271.595 33.1676C271.053 33.1383 270.496 33.1676 269.881 33.1676V35.3358H267.697V37.5333C266.95 37.5333 266.305 37.5333 265.645 37.5333C265.557 37.5333 265.44 37.3721 265.396 37.2696C265.352 37.1817 265.396 37.0498 265.396 36.9326C265.396 24.8757 265.396 12.8041 265.396 0.747135V0.117188H267.697V2.27074C268.312 2.27074 268.869 2.30004 269.412 2.27074C269.837 2.24144 269.939 2.41724 269.925 2.79814C269.895 3.34019 269.925 3.88224 269.925 4.48289C270.467 4.48289 270.965 4.48289 271.463 4.48289C272.138 4.48289 272.138 4.48289 272.123 5.12749C272.123 5.62559 272.123 6.12369 272.123 6.68039H274.307V8.87788C274.908 8.87788 275.479 8.87788 276.036 8.87788C276.402 8.87788 276.549 9.00974 276.534 9.39064C276.505 9.93268 276.534 10.4894 276.534 11.0754H278.689V13.2729H280.902V15.4704C281.371 15.4704 281.781 15.4704 282.206 15.4704C283.247 15.485 283.115 15.3239 283.129 16.408C283.129 16.8035 283.129 17.2137 283.129 17.6679H285.298L285.269 17.5946ZM282.997 30.8822C282.338 30.8822 281.752 30.8822 281.18 30.8822C280.902 30.8822 280.799 30.765 280.799 30.472C280.814 28.5382 280.799 26.5897 280.814 24.6559C280.814 24.5241 280.843 24.3776 280.858 24.1871H287.35V22.0482H285.152V19.8947H282.968V17.6825C282.338 17.6825 281.781 17.6825 281.209 17.6825C280.872 17.6825 280.755 17.58 280.77 17.2284C280.799 16.657 280.77 16.0857 280.77 15.4704H278.557V13.3022H276.358V11.09C275.728 11.09 275.157 11.09 274.6 11.09C274.292 11.09 274.16 10.9875 274.175 10.6652C274.189 10.0938 274.175 9.50783 274.175 8.86323H271.947V6.68039H269.763V4.52683H267.697V32.9332H269.778C269.778 32.3911 269.778 31.8784 269.778 31.3656C269.778 30.9554 269.881 30.7357 270.35 30.7796C270.863 30.8236 271.376 30.7796 271.947 30.7796C271.947 30.179 271.947 29.6223 271.947 29.0509C271.947 28.714 272.064 28.5528 272.431 28.5675C272.988 28.5821 273.559 28.5675 274.175 28.5675C274.175 27.9375 274.175 27.3662 274.175 26.7802C274.175 26.6483 274.277 26.3846 274.336 26.3846C275.039 26.3553 275.728 26.37 276.476 26.37V30.7796H278.659V35.1893H280.858V39.555H283.056V43.9353H287.336V39.6136H285.152V35.2332C284.624 35.2332 284.141 35.2332 283.672 35.2332C282.997 35.2332 282.997 35.2332 282.997 34.5447C282.997 33.3287 282.997 32.1274 282.997 30.8529V30.8822Z" fill="white"/>
<path d="M282.998 30.8807C282.998 32.1553 282.998 33.3712 282.998 34.5725C282.998 35.2611 282.998 35.2611 283.672 35.2611C284.156 35.2611 284.639 35.2611 285.152 35.2611V39.6414H287.336V43.9632H283.056V39.5828H280.858V35.2171H278.66V30.8075H276.476V26.3978C275.729 26.3978 275.04 26.3978 274.336 26.4125C274.278 26.4125 274.175 26.6615 274.175 26.808C274.16 27.3794 274.175 27.9654 274.175 28.5953C273.56 28.5953 272.988 28.61 272.431 28.5953C272.065 28.5953 271.947 28.7418 271.947 29.0788C271.947 29.6355 271.947 30.1922 271.947 30.8075C271.376 30.8075 270.863 30.8368 270.35 30.8075C269.881 30.7635 269.764 30.9833 269.778 31.3935C269.793 31.9062 269.778 32.419 269.778 32.961H267.697V4.55469H269.764V6.70824H271.947V8.89109H274.175C274.175 9.53569 274.175 10.107 274.175 10.693C274.175 11.0153 274.292 11.1179 274.6 11.1179C275.172 11.1032 275.729 11.1179 276.359 11.1179V13.33H278.557V15.4982H280.77C280.77 16.1135 280.785 16.6849 280.77 17.2562C280.755 17.5932 280.873 17.7104 281.21 17.7104C281.781 17.6957 282.338 17.7104 282.968 17.7104V19.9225H285.152V22.0761H287.351V24.215H280.858C280.843 24.4054 280.814 24.5373 280.814 24.6838C280.814 26.6176 280.814 28.566 280.799 30.4998C280.799 30.7928 280.902 30.91 281.18 30.91C281.767 30.91 282.338 30.91 282.998 30.91V30.8807Z" fill="black"/>
</svg>
